<svg width="64" height="64" viewBox="0 0 64 64" fill="none" xmlns="http://www.w3.org/2000/svg">
<rect width="64" height="64" rx="8" fill="#DEE2FB"/>
<path d="M45.9694 32.0001L42.6668 23.7441V18.6667H21.3334V23.7441L18.0308 32.0001H21.3334V45.3334H42.6668V32.0001H45.9694ZM23.5694 25.3334H27.7028L26.9028 29.3334H21.9694L23.5694 25.3334ZM30.4268 25.3334H33.5734L34.3734 29.3334H29.6268L30.4268 25.3334ZM37.0934 29.3334L36.2934 25.3334H40.4268L42.0268 29.3334H37.0934ZM24.0001 21.3334H40.0001V22.6667H24.0001V21.3334ZM30.6668 42.6667V37.3334H33.3334V42.6667H30.6668ZM40.0001 42.6667H36.0001V34.6667H28.0001V42.6667H24.0001V32.0001H40.0001V42.6667Z" fill="#5859F3"/>
</svg>
